<svg width="59" height="60" xmlns="http://www.w3.org/2000/svg"><g fill="none" fill-rule="evenodd"><path d="M0 0h60v60H0z"/><path fill="#6AA6D1" d="M4.918.984h46.23v58.033H4.918z"/><path d="M35.636 42.02c-.103-.039-2.415-1.352-6.934-3.94l-5.718 10.18 17.344 10.158h5.349c-6.591-10.894-9.938-16.36-10.041-16.398z" fill="#FFEA2E"/><path fill="#386281" d="M8.852 39.344h19.4l-5.216 8.534 6.514 4.352.942 2.852H8.852z"/><path d="M7.869 11.803h28.524c2.96.515 4.968 1.61 6.023 3.284 1.055 1.674 1.037 3.738-.053 6.19l-5.97 3.313H7.87l-5.227-6.385 5.227-6.402zM47.213 28.525h9.836v29.508h-9.836zM45.367 57.542C45.293 57.33 40.87 49.85 32.1 35.1l9.672-5.502 4.459 6.875v21.069c-.5.212-.788.212-.863 0z" fill="#FFEA2E"/><g fill="#BBAB1C"><path d="M46.483 42.719l-.863-1.496-4.978 2.873 3.83 6.636 2.01-1.16zM39.403 47.696l-1.496-.865-2.873 4.978 6.635 3.83 1.16-2.01zM55.102 38.307h-5.746v-7.662h5.746zM55.102 47.883h-5.746v-7.66h5.746zM39.684 42.437l-3.83-6.636 4.976-2.873 3.83 6.636zM33.375 50.851l-6.636-3.83 2.873-4.978 6.636 3.831z"/></g><path fill="#386281" d="M26.557 4.918h20.656v18.689H26.557z"/><path d="M25.574 11.803h12.295a6.393 6.393 0 1 1 0 12.787H25.574V11.803z" fill="#FFEA2E"/><path d="M52.229 26.815V0H4.345v14.471L0 18.196l4.345 3.724v37.456h54.587V26.815H52.23zM7.219 14.532v7.327l-4.275-3.663 4.274-3.664zm25.856-1.125h1.915v9.577h-1.915v-9.577zm3.83 0h.958a4.794 4.794 0 0 1 4.789 4.789 4.794 4.794 0 0 1-4.789 4.788h-.957v-9.577zm7.662 4.789a6.712 6.712 0 0 0-6.704-6.704H27.33V5.746h19.154v17.238h-3.938a6.677 6.677 0 0 0 2.022-4.788zM31.16 13.407v3.831H12.964v1.915H31.16v3.831H9.133v-3.83h1.916v-1.916H9.133v-3.83H31.16zM6.26 23.562l1.561 1.337h40.577V3.831H25.414v7.661H7.82l-1.56 1.338V1.915h44.052v24.9h-4.788v6.584l-3.293-5.702L30.621 34.4l3.292 5.702-5.702-3.291-.864 1.496H8.176v17.238H31.16v-1.55l6.003 3.465H6.26V23.562zM24.124 47.72l4.788-8.294 6.916 3.993 8.107 14.04h-2.94l-16.871-9.74zm5.12 5.168v.74H10.091V40.223h16.15l-4.734 8.2 7.737 4.467zm16.28 3.494L33.239 35.1l8.293-4.788 3.994 6.917v19.153zm11.493 1.077H47.44V28.73h9.577v28.73z" fill="#202841" fill-rule="nonzero"/><path d="M52.229 55.545a2.877 2.877 0 0 0 2.873-2.873 2.877 2.877 0 0 0-2.873-2.873 2.876 2.876 0 0 0-2.873 2.873 2.876 2.876 0 0 0 2.873 2.873zm0-3.83a.959.959 0 0 1 0 1.915.959.959 0 0 1 0-1.916z" fill="#202841" fill-rule="nonzero"/><path fill="#202841" d="M8.176 3.83h15.322v1.916H8.176zM8.176 7.661h15.322v1.916H8.176zM8.176 34.476h1.915v1.915H8.176zM12.006 34.476H27.33v1.915H12.006zM8.176 30.645h1.915v1.916H8.176zM12.006 30.645H27.33v1.916H12.006zM8.176 26.815h1.915v1.915H8.176zM12.006 26.815H27.33v1.915H12.006z"/></g></svg>