<svg width="60" height="60" xmlns="http://www.w3.org/2000/svg"><g fill="none" fill-rule="evenodd"><path fill="#596775" d="M59.032 53.226H.968v3.87l2.903 1.936h53.226l1.935-1.935z"/><path d="M46.452 20.323h6.774c1.07 0 1.935.866 1.935 1.935v30.968H4.84V22.258c0-1.07.866-1.935 1.935-1.935h6.774" fill="#DBC293"/><path fill="#EFEADF" d="M7.742 23.226h44.516v27.097H7.742z"/><path fill="#EFEADF" d="M42.58 41.613h3.872V8.71H38.71V.968H13.548v40.645h3.871"/><path fill="#FFEA2E" d="M17.42 35.806h25.16v13.549H17.42z"/><path fill="#BBAB1C" d="M19.355 35.806v-3.87h12.58L33.871 30h6.774v5.806M30 22.258l-6.774-6.774h3.87V4.839H30"/><path fill="#FFEA2E" d="M30 4.839h2.903v10.645h3.871L30 22.258"/><path fill="#DBC293" d="M46.452 8.71L38.71.968V8.71z"/><path d="M57.097 60H3.87a.975.975 0 0 1-.537-.163L.43 57.902a.97.97 0 0 1-.43-.805v-3.871c0-.536.432-.968.968-.968h58.064c.536 0 .968.432.968.968v3.87a.963.963 0 0 1-.284.685l-1.935 1.935a.963.963 0 0 1-.684.284zM4.164 58.065h52.532l1.369-1.369v-2.502H1.935v2.385l2.23 1.486z" fill="#202841" fill-rule="nonzero"/><path d="M55.161 54.194H4.84a.967.967 0 0 1-.968-.968V22.258c0-1.6 1.303-2.903 2.903-2.903h6.774v1.935H6.774a.968.968 0 0 0-.968.968v30h48.388v-30a.968.968 0 0 0-.968-.968h-6.774v-1.935h6.774c1.6 0 2.903 1.303 2.903 2.903v30.968a.967.967 0 0 1-.968.968z" fill="#202841"/><path d="M42.58 50.323H17.42a.967.967 0 0 1-.968-.968V35.806c0-.535.432-.967.967-.967h25.162c.535 0 .967.432.967.967v13.549a.967.967 0 0 1-.967.968zm-24.193-1.936h23.226V36.774H18.387v11.613z" fill="#202841" fill-rule="nonzero"/><path d="M41.613 35.806h-1.936v-4.838h-5.405L32.62 32.62a.963.963 0 0 1-.685.283H20.323v2.903h-1.936v-3.87c0-.536.432-.968.968-.968h12.18l1.652-1.652a.963.963 0 0 1 .684-.284h6.774c.536 0 .968.433.968.968v5.806z" fill="#202841"/><path d="M46.452 42.58H42.58v-1.935h2.903V9.677H38.71a.967.967 0 0 1-.968-.967V1.935H14.516v38.71h2.903v1.936h-3.87a.967.967 0 0 1-.968-.968V.968c0-.536.432-.968.967-.968H38.71c.535 0 .967.432.967.968v6.774h6.775c.535 0 .967.432.967.968v32.903a.967.967 0 0 1-.967.968z" fill="#202841"/><path fill="#202841" d="M38.025 1.652L39.393.284l7.743 7.742-1.37 1.368z"/><path d="M30 23.226a.966.966 0 0 1-.684-.284l-6.774-6.774a.967.967 0 0 1 .684-1.652h2.903V4.84c0-.536.432-.968.968-.968h5.806c.536 0 .968.432.968.968v9.677h2.903a.967.967 0 0 1 .684 1.652l-6.774 6.774a.966.966 0 0 1-.684.284zm-4.438-6.774L30 20.89l4.438-4.438h-1.535a.967.967 0 0 1-.968-.968V5.806h-3.87v9.678a.967.967 0 0 1-.968.968h-1.535z" fill="#202841" fill-rule="nonzero"/><path d="M38.71 27.097H21.29a.967.967 0 0 1-.967-.968v-3.87h1.935v2.902h15.484v-2.903h1.935v3.871a.967.967 0 0 1-.967.968z" fill="#202841"/></g></svg>