<svg width="60" height="60" xmlns="http://www.w3.org/2000/svg"><g fill="none" fill-rule="evenodd"><rect fill="#EFEADF" x="1.714" y="1.714" width="56.571" height="45.429" rx="5"/><path fill="#FFEA2E" d="M31.936 24.193h27.097v34.84H31.936z"/><path fill="#FFF" d="M38.572 29.143h12v11.143h-12zM38.572 42.857h12V54h-12z"/><path fill="#DBC293" d="M11.613 10.645h7.742v7.742h-7.742z"/><g fill="#DBC293"><path d="M22.258 9.677h23.226v1.935H22.258zM47.419 9.677h1.935v1.935h-1.935zM22.258 13.548h27.097v1.935H22.258zM22.258 17.42h27.097v1.934H22.258zM11.613 30.967H25.16v1.935H11.613zM27.097 30.967h1.935v1.935h-1.935zM11.613 23.225H25.16v1.935H11.613zM27.097 23.225h1.935v1.935h-1.935zM11.613 27.096h17.419v1.935h-17.42z"/></g><g fill="#1E252B"><path d="M30.968 23.226V60H60V23.226H30.968zm27.097 34.839H32.903V25.16h25.162v32.904z" fill-rule="nonzero"/><path d="M1.935 42.58v-2.903h17.42v-1.935H0v4.839a4.844 4.844 0 0 0 4.839 4.838h24.193v-1.935H4.84a2.907 2.907 0 0 1-2.904-2.903z"/><path d="M21.29 40.645c0 1.6 1.303 2.903 2.904 2.903h4.838v-1.935h-4.838a.969.969 0 0 1-.968-.968v-.968h5.806v-1.935H21.29v2.903zM3.871 4.839c0-1.6 1.303-2.904 2.903-2.904h46.452c1.6 0 2.903 1.303 2.903 2.904V21.29h1.936V4.84A4.844 4.844 0 0 0 53.225 0H6.776a4.844 4.844 0 0 0-4.84 4.839v30.967h1.936V4.84z"/><path d="M54.194 21.29V5.806a1.937 1.937 0 0 0-1.936-1.935H7.742a1.937 1.937 0 0 0-1.936 1.935v30h1.936v-30h44.516V21.29h1.936z"/><path d="M20.323 19.355V9.677h-9.678v9.678h9.678zm-7.742-7.742h5.806v5.806h-5.806v-5.806z" fill-rule="nonzero"/><path d="M50.323 35.806h-1.936v2.904h-7.742v-7.742h7.742v-1.936H38.71v11.613h11.613z"/><path d="M43.265 32.219l-1.369 1.368 3.508 3.508 9.384-7.298-1.189-1.53-8.035 6.25zM50.323 49.355h-1.936v2.903h-7.742v-7.742h7.742v-1.935H38.71v11.613h11.613z"/><path d="M43.265 45.767l-1.369 1.369 3.508 3.508 9.384-7.299-1.189-1.529-8.035 6.25z"/></g></g></svg>